# xmcd
#
# Track frame offsets:
#	150
#	32571
#	63184
#	87002
#	100167
#	114738
#	142830
#	156007
#	185064
#	200024
#	233738
# Disc length: 3485 seconds
# Revision: 1
# Processed by: cddbd v1.5.2PL0 Copyright (c) Steve Scherf et al.
#
# Submitted via: libkcddb 0.31
#
DISCID=8a0d9b0b
DTITLE=崔健 - 给你一点颜色
DYEAR=2005
DGENRE=Rock
TTITLE0=城市船夫
TTITLE1=蓝色骨头
TTITLE2=迷失的李节
TTITLE3=小城故事V21 （上）
TTITLE4=红先生
TTITLE5=网络处男
TTITLE6=小城故事V21 （中）
TTITLE7=农村包围城市
TTITLE8=小城故事V21 （下）
TTITLE9=舞过38线
TTITLE10=超越那一天
EXTD=YEAR: 2005
EXTT0=
EXTT1=
EXTT2=
EXTT3=
EXTT4=
EXTT5=
EXTT6=
EXTT7=
EXTT8=
EXTT9=
EXTT10=
PLAYORDER=
